#!OML:ASF E:\Style6\Style6.ASF
:FULLY-SPECIFIED
:DEGREES
3823
root 0.635668 17.1666 0.583638 27.9052 1.16858 1.16234
lowerback 15.3526 -0.913354 3.262
upperback -6.76249 -0.330729 1.20757
thorax -16.4414 -0.40787 -0.367448
lowerneck -6.08882 0.390034 2.57933
upperneck 7.99096 0.876376 -6.75983
head 3.77407 0.223344 -2.69321
rclavicle -2.14687e-014 1.74931e-014
rhumerus 8.65893 -53.2957 4.75458
rradius 94.8658
rwrist 35.3838
rhand -38.3819 30.4496
rfingers 7.12502
rthumb -11.4076 0.779964
lclavicle -2.14687e-014 1.74931e-014
lhumerus -2.11032 40.2807 -5.51738
lradius 102.94
lwrist -22.7087
lhand -41.616 18.6804
lfingers 7.12502
lthumb -14.5252 48.1519
rfemur -53.981 -17.0118 24.9536
rtibia 45.9869
rfoot -12.4377 2.87471
rtoes -6.91549
lfemur -50.653 8.5514 -24.5086
ltibia 45.0603
lfoot -16.3058 -3.30937
ltoes -13.4583
3824
root 0.63424 17.1657 0.585875 27.8652 1.16602 1.19386
lowerback 15.3957 -0.920132 3.20189
upperback -6.76314 -0.35143 1.20804
thorax -16.4695 -0.410965 -0.326254
lowerneck -6.09701 0.396066 2.56387
upperneck 8.01827 0.887756 -6.76477
head 3.78582 0.227782 -2.6921
rclavicle 9.14409e-015 -8.34896e-015
rhumerus 8.50272 -53.2607 4.73354
rradius 94.9684
rwrist 35.3498
rhand -38.2772 30.5344
rfingers 7.12502
rthumb -11.3066 0.859176
lclavicle 9.14409e-015 -8.34896e-015
lhumerus -2.22795 40.2534 -5.47393
lradius 102.935
lwrist -22.679
lhand -41.7348 18.8375
lfingers 7.12502
lthumb -14.6397 48.3007
rfemur -53.9451 -17.0373 24.922
rtibia 46.0117
rfoot -12.4564 2.82885
rtoes -7.46345
lfemur -50.6171 8.55528 -24.5324
ltibia 45.0889
lfoot -16.3142 -3.30666
ltoes -13.5597
3825
root 0.633384 17.1643 0.588418 27.8542 1.15793 1.18973
lowerback 15.3852 -0.922819 3.1913
upperback -6.75599 -0.357574 1.21207
thorax -16.4539 -0.412126 -0.314163
lowerneck -6.08865 0.393063 2.55124
upperneck 7.99139 0.885588 -6.7869
head 3.7748 0.225852 -2.69693
rclavicle -1.13307e-014 2.82274e-014
rhumerus 8.41271 -53.292 4.66842
rradius 95.0368
rwrist 35.3436
rhand -38.079 30.6399
rfingers 7.12502
rthumb -11.1155 0.954253
lclavicle -1.13307e-014 2.82274e-014
lhumerus -2.37013 40.2763 -5.43873
lradius 102.977
lwrist -22.6774
lhand -41.7319 19.1227
lfingers 7.12502
lthumb -14.6369 48.5861
rfemur -53.9263 -17.0221 24.9147
rtibia 46.0256
rfoot -12.4688 2.80274
rtoes -7.6224
lfemur -50.6119 8.58799 -24.5388
ltibia 45.1239
lfoot -16.3492 -3.32112
ltoes -13.5261
3826
root 0.632978 17.1628 0.589664 27.8721 1.18625 1.14766
lowerback 15.3605 -0.928627 3.23054
upperback -6.76266 -0.354694 1.23139
thorax -16.4469 -0.413558 -0.31526
lowerneck -6.12725 0.401291 2.53521
upperneck 8.01176 0.900493 -6.80388
head 3.79052 0.231087 -2.69994
rclavicle 1.13307e-014 3.18055e-015
rhumerus 8.26997 -53.3027 4.68946
rradius 95.103
rwrist 35.4022
rhand -38.058 30.4353
rfingers 7.12502
rthumb -11.0952 0.748603
lclavicle 1.13307e-014 3.18055e-015
lhumerus -2.47933 40.3874 -5.34745
lradius 103.03
lwrist -22.645
lhand -41.5404 18.8745
lfingers 7.12502
lthumb -14.4524 48.3512
rfemur -53.9461 -17.0278 24.9803
rtibia 46.0372
rfoot -12.4724 2.85478
rtoes -7.17475
lfemur -50.6378 8.58944 -24.4826
ltibia 45.1571
lfoot -16.3404 -3.33094
ltoes -13.3879
3827
root 0.633222 17.1632 0.592101 27.8959 1.23042 1.09743
lowerback 15.3092 -0.936269 3.29388
upperback -6.76937 -0.350527 1.24849
thorax -16.4233 -0.417047 -0.333263
lowerneck -6.16258 0.4017 2.49764
upperneck 8.03838 0.903555 -6.7786
head 3.80612 0.231545 -2.68485
rclavicle -6.16232e-015 -6.75868e-015
rhumerus 8.1108 -53.2748 4.73986
rradius 95.153
rwrist 35.4719
rhand -38.2019 30.2246
rfingers 7.12502
rthumb -11.234 0.545366
lclavicle -6.16232e-015 -6.75868e-015
lhumerus -2.56449 40.4821 -5.263
lradius 103.059
lwrist -22.5131
lhand -41.4172 18.6362
lfingers 7.12502
lthumb -14.3336 48.1215
rfemur -53.9636 -17.0617 25.0744
rtibia 46.0367
rfoot -12.5145 2.86285
rtoes -7.38696
lfemur -50.6681 8.57681 -24.4084
ltibia 45.189
lfoot -16.3377 -3.32872
ltoes -13.4644
3828
root 0.633464 17.1635 0.594704 27.8567 1.24512 1.0865
lowerback 15.3275 -0.945345 3.31338
upperback -6.76143 -0.358847 1.24213
thorax -16.4259 -0.423344 -0.349019
lowerneck -6.15575 0.414674 2.4735
upperneck 8.0358 0.918882 -6.72966
head 3.80354 0.240567 -2.66234
rclavicle 7.35503e-015 -7.15625e-015
rhumerus 7.92715 -53.2337 4.76802
rradius 95.1692
rwrist 35.5353
rhand -38.3135 30.2049
rfingers 7.12502
rthumb -11.3416 0.531621
lclavicle 7.35503e-015 -7.15625e-015
lhumerus -2.65395 40.5298 -5.20402
lradius 103.082
lwrist -22.3646
lhand -41.5002 18.481
lfingers 7.12502
lthumb -14.4136 47.9605
rfemur -53.9114 -17.088 25.0785
rtibia 46.0417
rfoot -12.5406 2.89956
rtoes -7.38846
lfemur -50.6263 8.58055 -24.3824
ltibia 45.2047
lfoot -16.3278 -3.35499
ltoes -13.4244
3829
root 0.633741 17.1634 0.596945 27.8213 1.22535 1.07656
lowerback 15.3423 -0.951813 3.30786
upperback -6.74621 -0.368284 1.24462
thorax -16.4168 -0.426626 -0.340411
lowerneck -6.14105 0.436955 2.48613
upperneck 8.00533 0.948418 -6.75496
head 3.79214 0.255118 -2.67125
rclavicle -8.94531e-015 2.0276e-014
rhumerus 7.77728 -53.202 4.75951
rradius 95.2117
rwrist 35.6121
rhand -38.4104 30.1226
rfingers 7.12502
rthumb -11.435 0.45439
lclavicle -8.94531e-015 2.0276e-014
lhumerus -2.78413 40.6043 -5.12793
lradius 103.05
lwrist -22.3484
lhand -41.7165 18.4736
lfingers 7.12502
lthumb -14.622 47.9381
rfemur -53.8653 -17.0703 25.06
rtibia 46.0437
rfoot -12.5136 2.88092
rtoes -7.62073
lfemur -50.5796 8.59769 -24.3706
ltibia 45.2143
lfoot -16.3473 -3.39289
ltoes -13.0974
